# xmcd
#
# Track frame offsets:
#       150
#       13005
#       24858
#       41058
#       63220
#       85996
#       101583
#       120123
#       131251
#       140568
#       153508
#       170321
#
# Disc length: 2468 seconds
#
# Revision: 0
# Processed by: cddbd v1.4PL0 Copyright (c) Steve Scherf et al.
# Submitted via: WhereIsIt 3.26
#
DISCID=8b09a20c
DTITLE=Anita Kerr Singers - we've got a groovy thing goin'
DYEAR=1900
DGENRE=
TTITLE0=a hazy shade of winter
TTITLE1=eleanor rigby
TTITLE2=we've got a groovy thing goin'
TTITLE3=eli's comin'
TTITLE4=something in the way she moves
TTITLE5=thanks
TTITLE6=blame it on a monday
TTITLE7=somewhere they can't find me
TTITLE8=el condor pasa
TTITLE9=scarborough fair canticle
TTITLE10=the sound of silence
TTITLE11=fakin'it
EXTD=
EXTT0=
EXTT1=
EXTT2=
EXTT3=
EXTT4=
EXTT5=
EXTT6=
EXTT7=
EXTT8=
EXTT9=
EXTT10=
EXTT11=
PLAYORDER=
